<svg width="53" height="53" viewBox="0 0 53 53" fill="none" xmlns="http://www.w3.org/2000/svg">
<path d="M21.5106 7.45313H1.55273C0.695091 7.45313 0 8.14822 0 9.00586V28.9638C0 29.8214 0.695091 30.5165 1.55273 30.5165H9.97874V43.9323C9.97874 44.7895 10.6738 45.485 11.5315 45.485H16.5213C17.1897 45.485 17.7829 45.0572 17.9939 44.4232L22.9833 29.4546C23.0363 29.2965 23.0634 29.1308 23.0634 28.9638V9.00586C23.0634 8.14822 22.3683 7.45312 21.5106 7.45312V7.45313Z" fill="#28B0CA"/>
<path d="M51.4472 7.45313H31.4893C30.6316 7.45313 29.9365 8.14822 29.9365 9.00586V28.9638C29.9365 29.8214 30.6316 30.5165 31.4893 30.5165H39.9157V43.9323C39.9157 44.7895 40.6108 45.485 41.4684 45.485H46.4578C47.1262 45.485 47.7194 45.0572 47.9309 44.4232L52.9202 29.4546C52.9728 29.2965 52.9999 29.1308 52.9999 28.9638V9.00586C52.9999 8.14822 52.3048 7.45312 51.4472 7.45312V7.45313Z" fill="#28B0CA"/>
</svg>
