<svg width="64" height="64" viewBox="0 0 64 64" fill="none" xmlns="http://www.w3.org/2000/svg">
<path d="M0 31.9999C0 35.9142 0.704125 39.6637 1.99038 43.1303L32 45.9129L62.0096 43.1303C63.2959 39.6637 64 35.9142 64 31.9999C64 28.0857 63.2959 24.3362 62.0096 20.8695L32 18.0869L1.99038 20.8695C0.704125 24.3362 0 28.0857 0 31.9999H0Z" fill="#FFDA44"/>
<path d="M62.0095 20.8696C57.4881 8.68412 45.7587 0 31.9999 0C18.241 0 6.51161 8.68412 1.99023 20.8696H62.0095Z" fill="#D80027"/>
<path d="M1.99023 43.1299C6.51161 55.3154 18.241 63.9995 31.9999 63.9995C45.7587 63.9995 57.4881 55.3154 62.0095 43.1299H1.99023Z" fill="#D80027"/>
</svg>
