<svg width="16" height="17" viewBox="0 0 16 17" fill="none" xmlns="http://www.w3.org/2000/svg">
<path d="M11.1833 0.235352H5.46894C2.83941 0.235352 0.707031 2.50101 0.707031 5.29488V11.3663C0.707031 14.1601 2.83941 16.4258 5.46894 16.4258H11.1833C13.8127 16.4258 15.9452 14.1601 15.9452 11.3663V5.29488C15.9452 2.50101 13.8127 0.235352 11.1833 0.235352ZM14.5166 11.3663C14.5166 13.3193 13.0213 14.908 11.1833 14.908H5.46894C3.63084 14.908 2.1356 13.3193 2.1356 11.3663V5.29488C2.1356 3.3419 3.63084 1.75321 5.46894 1.75321H11.1833C13.0213 1.75321 14.5166 3.3419 14.5166 5.29488V11.3663Z" fill="white"/>
<path d="M8.32518 4.2832C6.22134 4.2832 4.51562 6.09552 4.51562 8.33081C4.51562 10.5661 6.22134 12.3784 8.32518 12.3784C10.429 12.3784 12.1347 10.5661 12.1347 8.33081C12.1347 6.09552 10.429 4.2832 8.32518 4.2832ZM8.32518 10.8606C7.01277 10.8606 5.9442 9.72521 5.9442 8.33081C5.9442 6.93541 7.01277 5.80106 8.32518 5.80106C9.63756 5.80106 10.7061 6.93541 10.7061 8.33081C10.7061 9.72521 9.63756 10.8606 8.32518 10.8606Z" fill="white"/>
<path d="M12.4216 4.51814C12.702 4.51814 12.9293 4.27666 12.9293 3.9788C12.9293 3.68093 12.702 3.43945 12.4216 3.43945C12.1413 3.43945 11.9141 3.68093 11.9141 3.9788C11.9141 4.27666 12.1413 4.51814 12.4216 4.51814Z" fill="white"/>
</svg>
