<svg width="17" height="11" viewBox="0 0 17 11" fill="none" xmlns="http://www.w3.org/2000/svg">
<path d="M16.6497 1.72124C16.4538 1.04818 15.8796 0.517618 15.1514 0.336384C13.8211 0 8.49981 0 8.49981 0C8.49981 0 3.17869 0 1.84838 0.323631C1.1342 0.504672 0.545985 1.04828 0.350086 1.72124C0 2.95056 0 5.5 0 5.5C0 5.5 0 8.06229 0.350086 9.27876C0.546192 9.95172 1.12019 10.4823 1.84848 10.6635C3.19269 11 8.50002 11 8.50002 11C8.50002 11 13.8211 11 15.1514 10.6764C15.8797 10.4952 16.4538 9.96467 16.6499 9.29171C16.9999 8.06229 16.9999 5.51295 16.9999 5.51295C16.9999 5.51295 17.0139 2.95056 16.6497 1.72124V1.72124ZM6.80562 7.85527V3.14473L11.2306 5.5L6.80562 7.85527Z" fill="white"/>
</svg>
