<svg width="30" height="30" viewBox="0 0 30 30" fill="none" xmlns="http://www.w3.org/2000/svg">
<path d="M25.8839 20.2634L22.9387 24.495L20.8602 22.7892C20.636 22.6045 20.3039 22.6376 20.1197 22.8618C19.935 23.0866 19.9676 23.4187 20.1929 23.6024L22.7118 25.6703C22.806 25.7482 22.9245 25.7897 23.0455 25.7897C23.0692 25.7897 23.0934 25.7882 23.1176 25.7845C23.2629 25.7645 23.3934 25.6845 23.4776 25.564L26.7481 20.8645C26.9139 20.6261 26.8555 20.2982 26.6166 20.1318C26.3776 19.965 26.0502 20.0245 25.8839 20.2634Z" fill="white"/>
<path d="M28.4211 18.7921V6.40842C28.4211 2.87474 25.5463 0 22.0126 0H6.40842C2.87474 0 0 2.87474 0 6.40842V22.0126C0 25.5463 2.87474 28.4211 6.40842 28.4211H18.7921C19.9779 29.4063 21.4995 30 23.1579 30C26.9305 30 30 26.9305 30 23.1579C30 21.4995 29.4063 19.9779 28.4211 18.7921ZM6.40842 27.3684C3.45526 27.3684 1.05263 24.9663 1.05263 22.0126V6.40842C1.05263 3.45474 3.45526 1.05263 6.40842 1.05263H22.0126C24.9658 1.05263 27.3684 3.45474 27.3684 6.40842V17.7726C27.3289 17.7416 27.2868 17.7153 27.2468 17.6853C27.1363 17.6021 27.0258 17.5195 26.91 17.4432C26.8979 17.4353 26.8847 17.4284 26.8726 17.4205C26.6021 17.2447 26.3174 17.09 26.0221 16.9532C25.9821 16.9347 25.9432 16.9137 25.9032 16.8958C25.7874 16.8447 25.6689 16.8011 25.55 16.7563C25.4747 16.7279 25.3995 16.6989 25.3232 16.6732C25.2142 16.6368 25.1042 16.6047 24.9932 16.5737C24.8989 16.5474 24.8042 16.5226 24.7089 16.5005C24.6084 16.4774 24.5084 16.4547 24.4063 16.4358C24.2853 16.4132 24.1632 16.3958 24.0405 16.38C23.9584 16.3695 23.8768 16.3563 23.7937 16.3484C23.5832 16.3279 23.3711 16.3158 23.1579 16.3158C19.9295 16.3158 17.2226 18.5663 16.5068 21.5789H14.2105C13.92 21.5789 13.6842 21.8142 13.6842 22.1053C13.6842 22.3963 13.92 22.6316 14.2105 22.6316H16.3426C16.3289 22.8058 16.3158 22.9805 16.3158 23.1579C16.3158 23.3711 16.3284 23.5832 16.3479 23.7937C16.3558 23.8774 16.3684 23.9589 16.3795 24.0416C16.3953 24.1632 16.4126 24.2847 16.4353 24.4047C16.4542 24.5074 16.4768 24.6089 16.5005 24.71C16.5226 24.8042 16.5468 24.8974 16.5726 24.9905C16.6042 25.1032 16.6363 25.2147 16.6737 25.3247C16.6984 25.3989 16.7268 25.4716 16.7542 25.5447C16.7995 25.6658 16.8442 25.7863 16.8958 25.9042C16.9111 25.9389 16.9295 25.9726 16.9453 26.0074C17.0858 26.3126 17.2458 26.6074 17.4284 26.8863C17.4332 26.8937 17.4374 26.9016 17.4421 26.9084C17.5189 27.0247 17.6021 27.1358 17.6853 27.2474C17.7153 27.2874 17.7416 27.3289 17.7721 27.3684H6.40842ZM23.1579 28.9474C21.6732 28.9474 20.3211 28.3805 19.2953 27.4579C19.1679 27.3437 19.0463 27.2247 18.9305 27.1005C18.9047 27.0732 18.88 27.0453 18.8547 27.0174C18.7447 26.8947 18.6405 26.7684 18.5416 26.6379C18.5189 26.6079 18.4958 26.5779 18.4737 26.5474C18.3763 26.4126 18.2847 26.2742 18.1995 26.1321C18.1821 26.1037 18.1642 26.0758 18.1474 26.0463C18.0611 25.8974 17.9826 25.7447 17.91 25.5889C17.8984 25.5642 17.8858 25.5405 17.8747 25.5153C17.8016 25.3526 17.7374 25.1863 17.68 25.0174C17.6732 24.9963 17.6642 24.9763 17.6574 24.9558C17.6011 24.7842 17.5542 24.6089 17.5137 24.4321C17.5089 24.4116 17.5021 24.3916 17.4979 24.3705C17.46 24.1963 17.4332 24.0195 17.4121 23.8416C17.4089 23.8168 17.4037 23.7926 17.4011 23.7674C17.3795 23.5663 17.3684 23.3632 17.3684 23.1579C17.3684 19.9658 19.9658 17.3684 23.1579 17.3684C23.3632 17.3684 23.5668 17.3795 23.7689 17.4016C23.7926 17.4042 23.8153 17.4095 23.8389 17.4126C24.0179 17.4342 24.1963 17.4616 24.3716 17.4995C24.3916 17.5037 24.4105 17.5105 24.4305 17.5147C24.6084 17.5553 24.7842 17.6021 24.9568 17.6589C24.9763 17.6653 24.9953 17.6732 25.0147 17.68C25.1853 17.7379 25.3532 17.8032 25.5174 17.8768C25.5405 17.8874 25.5632 17.8995 25.5863 17.91C25.7437 17.9832 25.8979 18.0626 26.0484 18.1495C26.0758 18.1653 26.1026 18.1826 26.1295 18.1989C26.2732 18.2858 26.4132 18.3774 26.5495 18.4763C26.5784 18.4974 26.6068 18.5189 26.6353 18.5405C26.7679 18.6405 26.8963 18.7463 27.0205 18.8579C27.0468 18.8816 27.0732 18.9047 27.0984 18.9289C27.2242 19.0463 27.3453 19.17 27.4616 19.2995C28.3821 20.3242 28.9474 21.6747 28.9474 23.1579C28.9474 26.35 26.35 28.9474 23.1579 28.9474Z" fill="white"/>
<path d="M14.2099 7.36904H23.6836C23.9741 7.36904 24.2099 7.13377 24.2099 6.84272C24.2099 6.55167 23.9741 6.31641 23.6836 6.31641H14.2099C13.9194 6.31641 13.6836 6.55167 13.6836 6.84272C13.6836 7.13377 13.9194 7.36904 14.2099 7.36904Z" fill="white"/>
<path d="M14.2099 14.7372H23.6836C23.9741 14.7372 24.2099 14.5019 24.2099 14.2109C24.2099 13.9198 23.9741 13.6846 23.6836 13.6846H14.2099C13.9194 13.6846 13.6836 13.9198 13.6836 14.2109C13.6836 14.5019 13.9194 14.7372 14.2099 14.7372Z" fill="white"/>
<path d="M10.089 3.86865L6.80062 7.70444L4.78957 6.19549C4.55694 6.02128 4.22694 6.06812 4.05273 6.30076C3.87799 6.53286 3.92536 6.86286 4.15799 7.03707L6.56378 8.84181C6.65852 8.91286 6.76904 8.94707 6.87957 8.94707C7.02852 8.94707 7.17589 8.88444 7.27957 8.76286L10.8885 4.55234C11.0775 4.33181 11.0522 3.9997 10.8317 3.81076C10.6117 3.62234 10.2785 3.6476 10.089 3.86865Z" fill="white"/>
<path d="M10.089 11.2368L6.80062 15.0726L4.78957 13.5637C4.55694 13.3894 4.22694 13.4363 4.05273 13.6689C3.87799 13.901 3.92536 14.231 4.15799 14.4052L6.56378 16.21C6.65852 16.281 6.76904 16.3152 6.87957 16.3152C7.02852 16.3152 7.17589 16.2526 7.27957 16.131L10.8885 11.9205C11.0775 11.7 11.0522 11.3679 10.8317 11.1789C10.6117 10.9905 10.2785 11.0158 10.089 11.2368Z" fill="white"/>
<path d="M10.089 19.1313L6.80062 22.9665L4.78957 21.4581C4.55694 21.2844 4.22694 21.3307 4.05273 21.5634C3.87799 21.7955 3.92536 22.1255 4.15799 22.2997L6.56378 24.1044C6.65852 24.1755 6.76904 24.2097 6.87957 24.2097C7.02852 24.2097 7.17589 24.147 7.27957 24.0255L10.8885 19.8155C11.0775 19.5949 11.0522 19.2628 10.8317 19.0739C10.6117 18.8849 10.2785 18.9102 10.089 19.1313Z" fill="white"/>
</svg>
