<svg width="25" height="25" viewBox="0 0 25 25" fill="none" xmlns="http://www.w3.org/2000/svg">
<path d="M24.7943 3.03355C24.7794 3.01958 21.8429 0.219043 21.8429 0.219043C21.7306 0.111328 21.6145 0 21.3977 0H9.57542C9.2301 0 8.94915 0.280909 8.94915 0.626222V2.54922L4.78239 3.26348C4.44841 3.32208 4.2238 3.6417 4.28166 3.97535L4.49313 5.20836C3.13879 5.66412 1.7483 6.13394 0.405969 6.61612C0.0887809 6.73209 -0.0776745 7.08478 0.0355093 7.40387L2.70568 14.8265C2.75939 14.9759 2.90016 15.0689 3.05031 15.0689C3.09142 15.0689 3.13332 15.0619 3.17423 15.0472C3.36457 14.9787 3.46335 14.769 3.39489 14.5786L0.764221 7.26573C2.02887 6.81295 3.33854 6.36979 4.61848 5.93897L5.87683 13.2752L7.32478 21.724C7.37707 22.0222 7.63923 22.2345 7.93513 22.2345C7.96863 22.2345 8.00261 22.2317 8.03669 22.2261L11.9584 21.5531L15.0228 21.0278L10.4139 22.6844L6.77937 23.9912L3.95671 16.1402C3.8883 15.9498 3.67858 15.851 3.4882 15.9195C3.29787 15.9879 3.19909 16.1976 3.2675 16.388L6.1302 24.3506C6.22175 24.601 6.45896 24.7566 6.70969 24.7566C6.77898 24.7566 6.84934 24.7447 6.91789 24.7197L10.6616 23.3737L19.1623 20.3183L20.7863 20.0399H24.3737C24.719 20.0399 25 19.7584 25 19.4123V3.4462C25 3.22701 24.8811 3.11519 24.7943 3.03355V3.03355ZM23.824 3.12027H21.9915L21.9461 3.12046C21.8583 3.12105 21.6529 3.12256 21.6008 3.07081C21.5888 3.05884 21.5748 3.0189 21.5748 2.94473L21.5705 0.971339L23.824 3.12027ZM24.2676 19.3074H9.68157V12.1703C9.68157 11.9681 9.5176 11.8041 9.31536 11.8041C9.11311 11.8041 8.94915 11.9681 8.94915 12.1703V19.4122C8.94915 19.7582 9.2301 20.0398 9.57542 20.0398H16.451L11.8346 20.8311L8.02683 21.4846L6.5987 13.1513L5.02307 3.96529L8.9491 3.29229V10.4711C8.9491 10.6734 9.11306 10.8373 9.31531 10.8373C9.51755 10.8373 9.68152 10.6734 9.68152 10.4711V0.732374H20.8375L20.8423 2.94556C20.8423 3.21382 20.9239 3.43082 21.0848 3.59058C21.332 3.83604 21.6815 3.85313 21.8984 3.85313C21.9171 3.85313 21.9348 3.85298 21.9513 3.85289L24.2676 3.85274V19.3074Z" fill="#111111"/>
<path d="M11.4473 5.68652C11.4473 5.88877 11.6112 6.05274 11.8135 6.05274H22.284C22.4862 6.05274 22.6502 5.88877 22.6502 5.68652C22.6502 5.48428 22.4862 5.32031 22.284 5.32031H11.8135C11.6112 5.32031 11.4473 5.48428 11.4473 5.68652V5.68652Z" fill="#111111"/>
<path d="M22.284 7.92188H11.8135C11.6112 7.92188 11.4473 8.08584 11.4473 8.28809C11.4473 8.49033 11.6112 8.6543 11.8135 8.6543H22.284C22.4862 8.6543 22.6502 8.49033 22.6502 8.28809C22.6502 8.08584 22.4862 7.92188 22.284 7.92188Z" fill="#111111"/>
<path d="M22.284 10.5234H11.8135C11.6112 10.5234 11.4473 10.6874 11.4473 10.8896C11.4473 11.0919 11.6112 11.2559 11.8135 11.2559H22.284C22.4862 11.2559 22.6502 11.0919 22.6502 10.8896C22.6502 10.6874 22.4862 10.5234 22.284 10.5234Z" fill="#111111"/>
<path d="M22.284 13.125H11.8135C11.6112 13.125 11.4473 13.289 11.4473 13.4912C11.4473 13.6935 11.6112 13.8574 11.8135 13.8574H22.284C22.4862 13.8574 22.6502 13.6935 22.6502 13.4912C22.6502 13.289 22.4862 13.125 22.284 13.125Z" fill="#111111"/>
<path d="M22.284 15.7266H11.8135C11.6112 15.7266 11.4473 15.8905 11.4473 16.0928C11.4473 16.295 11.6112 16.459 11.8135 16.459H22.284C22.4862 16.459 22.6502 16.295 22.6502 16.0928C22.6502 15.8905 22.4862 15.7266 22.284 15.7266Z" fill="#111111"/>
</svg>
