<svg width="25" height="27" viewBox="0 0 25 27" fill="none" xmlns="http://www.w3.org/2000/svg">
<path d="M13.3382 12.9315C13.5092 13.0476 13.7623 12.9978 13.8773 12.8283L18.5415 5.95678C18.662 5.7794 18.6158 5.538 18.4384 5.41761C18.2611 5.29727 18.0196 5.34334 17.8992 5.52082L13.235 12.3923C13.1146 12.5697 13.1608 12.8111 13.3382 12.9315Z" fill="white"/>
<path d="M18.4162 12.9993C19.224 12.9993 19.8813 12.1915 19.8813 11.1985C19.7986 8.80855 17.0337 8.80912 16.9512 11.1985C16.9512 12.1915 17.6084 12.9993 18.4162 12.9993ZM18.4162 10.1741C18.7896 10.1741 19.1049 10.6432 19.1049 11.1985C19.1049 11.7538 18.7896 12.2229 18.4162 12.2229C18.0429 12.2229 17.7275 11.7538 17.7275 11.1985C17.7275 10.6432 18.043 10.1741 18.4162 10.1741Z" fill="white"/>
<path d="M14.7696 7.15136C14.7696 6.15838 14.1124 5.35059 13.3046 5.35059C11.3617 5.4466 11.3624 8.85659 13.3046 8.95213C14.1124 8.95213 14.7696 8.14429 14.7696 7.15136ZM12.6159 7.15136C12.6159 6.59605 12.9313 6.12696 13.3046 6.12696C13.6779 6.12696 13.9933 6.59605 13.9933 7.15136C13.9933 7.70667 13.6779 8.17576 13.3046 8.17576C12.9313 8.17576 12.6159 7.70662 12.6159 7.15136Z" fill="white"/>
<path d="M13.1033 17.9052C22.6308 20.7451 29.2266 8.81724 21.8078 2.22764C21.6453 2.08773 21.4002 2.10595 21.2603 2.26847C21.1204 2.43094 21.1386 2.67602 21.3011 2.81592C28.1879 8.95078 21.8705 19.9745 13.1033 17.087V14.4491C13.1033 14.1164 12.902 13.6479 11.943 13.3056C10.8489 12.915 9.58662 12.8804 8.44462 13.0419C4.78422 5.89642 12.2757 -1.8432 19.5161 1.63868C19.7085 1.73267 19.9411 1.65291 20.0353 1.46027C20.1294 1.26768 20.0496 1.03523 19.857 0.94108C12.047 -2.82304 3.88777 5.40632 7.65676 13.2016C7.54071 13.2335 7.42918 13.268 7.32374 13.3056C6.36477 13.648 6.16343 14.1165 6.16343 14.4491V17.033C5.37396 16.6593 4.52264 16.5397 3.47474 16.5255C2.96083 16.543 2.96068 17.284 3.47433 17.3019C4.25318 17.3023 4.97961 17.4089 5.51986 17.602C6.05158 17.792 6.16348 17.9839 6.16348 18.0138C6.16348 18.0438 6.05137 18.236 5.51852 18.4261C4.28274 18.8673 2.65655 18.8671 1.42133 18.4261C0.888483 18.2359 0.776374 18.0437 0.776374 18.0138C0.776374 17.9786 0.912602 17.7574 1.56005 17.5556C2.04554 17.3856 1.82458 16.6784 1.32905 16.8144C0.230583 17.1568 0 17.6556 0 18.0138V25.0317C0 25.3644 0.20134 25.8328 1.16032 26.1752C2.5639 26.6762 4.37642 26.676 5.77954 26.1752C6.12833 26.0506 6.37657 25.9094 6.55167 25.7641C6.72676 25.9094 6.975 26.0506 7.3238 26.1752C8.72743 26.6762 10.54 26.676 11.9431 26.1752C12.2919 26.0506 12.5401 25.9094 12.7152 25.7641C12.8903 25.9094 13.1385 26.0506 13.4873 26.1752C14.8909 26.6762 16.7034 26.676 18.1065 26.1752C19.0655 25.8328 19.2669 25.3643 19.2669 25.0317V21.5227C19.2669 21.19 19.0655 20.7215 18.1065 20.3792C16.703 19.8782 14.8904 19.8783 13.4873 20.3792C13.3427 20.4309 13.2155 20.4854 13.1034 20.5419C13.103 20.0359 13.1041 18.5341 13.103 18.0061C13.1036 17.9921 13.1032 17.9204 13.1033 17.9052ZM18.4904 23.2772C18.4904 23.3072 18.3783 23.4994 17.8455 23.6895C16.6097 24.1307 14.9835 24.1305 13.7483 23.6895C13.2154 23.4993 13.1033 23.3071 13.1033 23.2772V22.5036C13.2154 22.56 13.3426 22.6147 13.4873 22.6663C14.8909 23.1673 16.7034 23.1672 18.1065 22.6663C18.2512 22.6147 18.3783 22.5601 18.4904 22.5036V23.2772ZM12.327 16.2036C12.327 16.2336 12.2148 16.4258 11.682 16.6159C10.4462 17.0571 8.81997 17.0569 7.58476 16.6159C7.05191 16.4257 6.9398 16.2335 6.9398 16.2036V15.43C7.05191 15.4864 7.17908 15.5411 7.32374 15.5927C8.72738 16.0937 10.5399 16.0936 11.943 15.5927C12.0877 15.5411 12.2148 15.4865 12.327 15.43V16.2036ZM7.32374 17.3471C8.86055 17.8825 10.8412 17.8675 12.327 17.1844V17.986C12.327 18.0159 12.2148 18.2081 11.682 18.3983C10.4461 18.8395 8.82008 18.8392 7.58476 18.3983C7.05191 18.2081 6.9398 18.0159 6.9398 17.986V17.1844C7.05191 17.2409 7.17903 17.2955 7.32374 17.3471ZM6.16343 21.5227C6.16343 21.5527 6.05132 21.7449 5.51847 21.9351C4.28258 22.3763 2.6566 22.376 1.42128 21.9351C0.888431 21.7449 0.776322 21.5527 0.776322 21.5227V20.7491C0.888431 20.8055 1.0156 20.8601 1.16027 20.9118C2.56385 21.4128 4.37637 21.4127 5.77948 20.9118C5.92415 20.8601 6.05132 20.8056 6.16343 20.7491V21.5227ZM0.776322 22.5035C0.888431 22.56 1.0156 22.6146 1.16027 22.6663C2.56385 23.1673 4.37637 23.1671 5.77948 22.6663C5.92415 22.6146 6.05132 22.56 6.16343 22.5035V23.2772C6.16343 23.3071 6.05132 23.4993 5.51847 23.6895C4.28269 24.1306 2.65649 24.1304 1.42128 23.6895C0.888431 23.4993 0.776322 23.3071 0.776322 23.2772V22.5035ZM6.9398 22.5035C7.05191 22.56 7.17908 22.6146 7.32374 22.6663C8.72738 23.1673 10.5399 23.1671 11.943 22.6663C12.0877 22.6146 12.2148 22.56 12.327 22.5035V23.2772C12.327 23.3071 12.2148 23.4993 11.682 23.6895C10.4462 24.1306 8.81997 24.1305 7.58476 23.6895C7.05191 23.4993 6.9398 23.3071 6.9398 23.2772V22.5035ZM11.682 21.9351C10.4461 22.3763 8.82008 22.376 7.58476 21.9351C7.05191 21.7449 6.9398 21.5527 6.9398 21.5227V20.7491C7.05191 20.8055 7.17908 20.8601 7.32374 20.9118C8.72738 21.4128 10.5399 21.4127 11.943 20.9118C12.0877 20.8601 12.2148 20.8056 12.327 20.7491V21.5227C12.327 21.5527 12.2148 21.7449 11.682 21.9351ZM12.327 19.7683C12.327 19.7982 12.2148 19.9904 11.682 20.1806C10.4461 20.6217 8.82008 20.6215 7.58476 20.1806C7.05191 19.9904 6.9398 19.7982 6.9398 19.7683V18.9667C7.05191 19.0232 7.17908 19.0778 7.32374 19.1295C8.72738 19.6305 10.5399 19.6303 11.943 19.1295C12.0877 19.0778 12.2148 19.0232 12.327 18.9667V19.7683ZM7.58476 14.0368C8.82013 13.5958 10.447 13.5959 11.682 14.0368C12.2148 14.227 12.327 14.4192 12.327 14.4491C12.327 14.479 12.2148 14.6713 11.682 14.8615C10.4461 15.3027 8.82008 15.3024 7.58476 14.8615C7.05191 14.6713 6.9398 14.4791 6.9398 14.4491C6.9398 14.4191 7.05191 14.227 7.58476 14.0368ZM1.16027 19.1573C2.69707 19.6927 4.67765 19.6777 6.16343 18.9946V19.7683C6.16343 19.7983 6.05132 19.9905 5.51847 20.1806C4.28258 20.6218 2.6566 20.6216 1.42128 20.1806C0.888431 19.9904 0.776322 19.7982 0.776322 19.7683V18.9946C0.888379 19.0511 1.01555 19.1056 1.16027 19.1573ZM5.51847 25.444C4.28258 25.8852 2.6566 25.885 1.42128 25.444C0.888431 25.2538 0.776322 25.0616 0.776322 25.0317V24.258C2.38937 24.9836 4.55079 24.9835 6.16343 24.258V25.0317C6.16343 25.0616 6.05132 25.2538 5.51847 25.444ZM11.682 25.444C10.4461 25.8852 8.82008 25.8849 7.58476 25.444C7.05191 25.2538 6.9398 25.0616 6.9398 25.0317V24.258C8.55285 24.9836 10.7143 24.9835 12.327 24.258V25.0317C12.327 25.0616 12.2148 25.2538 11.682 25.444ZM17.8455 25.444C16.6096 25.8852 14.9836 25.885 13.7483 25.444C13.2154 25.2538 13.1033 25.0616 13.1033 25.0317V24.258C14.7164 24.9836 16.8778 24.9835 18.4904 24.258V25.0317C18.4904 25.0616 18.3783 25.2538 17.8455 25.444ZM13.7483 21.1104C14.9842 20.6692 16.6102 20.6694 17.8455 21.1104C18.3783 21.3006 18.4904 21.4928 18.4904 21.5227C18.4904 21.5526 18.3783 21.7449 17.8455 21.9351C16.6096 22.3763 14.9836 22.376 13.7483 21.9351C13.2154 21.7449 13.1033 21.5527 13.1033 21.5227C13.1033 21.4927 13.2154 21.3006 13.7483 21.1104Z" fill="white"/>
</svg>
