<svg width="16" height="17" viewBox="0 0 16 17" fill="none" xmlns="http://www.w3.org/2000/svg">
<path d="M15.9452 3.31123C15.3785 3.57533 14.7746 3.75039 14.1452 3.83539C14.7928 3.42456 15.2871 2.77897 15.5195 2.00081C14.9157 2.38331 14.2489 2.65349 13.5385 2.80426C12.9651 2.15563 12.148 1.75391 11.2565 1.75391C9.52702 1.75391 8.13464 3.24545 8.13464 5.07397C8.13464 5.33706 8.1556 5.59004 8.20702 5.83087C5.60989 5.69629 3.31179 4.37373 1.76798 2.35903C1.49846 2.85587 1.34037 3.42456 1.34037 4.03676C1.34037 5.18629 1.89751 6.20528 2.72799 6.79522C2.22608 6.7851 1.7337 6.63027 1.31656 6.38641C1.31656 6.39652 1.31656 6.40968 1.31656 6.42283C1.31656 8.03581 2.39941 9.37556 3.81941 9.68415C3.56513 9.75806 3.28798 9.79343 3.00037 9.79343C2.80037 9.79343 2.59846 9.78129 2.40894 9.73677C2.8137 11.0513 3.96227 12.0176 5.32798 12.049C4.26513 12.9324 2.9156 13.4646 1.45465 13.4646C1.19846 13.4646 0.952747 13.4525 0.707031 13.4191C2.09084 14.3672 3.73084 14.9087 5.49941 14.9087C11.248 14.9087 14.3909 9.84913 14.3909 5.46355C14.3909 5.31682 14.3861 5.17516 14.3794 5.0345C14.9994 4.567 15.5204 3.98313 15.9452 3.31123Z" fill="white"/>
</svg>
