<svg width="15" height="15" viewBox="0 0 15 15" fill="none" xmlns="http://www.w3.org/2000/svg">
<path d="M15.0004 15.0004V9.50664C15.0004 6.80664 14.4191 4.74414 11.2691 4.74414C9.75039 4.74414 8.73789 5.56914 8.32539 6.35664H8.28789V4.98789H5.30664V15.0004H8.41914V10.0316C8.41914 8.71914 8.66289 7.46289 10.2754 7.46289C11.8691 7.46289 11.8879 8.94414 11.8879 10.1066V14.9816H15.0004V15.0004Z" fill="white"/>
<path d="M0.244141 4.9873H3.35664V14.9998H0.244141V4.9873Z" fill="white"/>
<path d="M1.8 0C0.80625 0 0 0.80625 0 1.8C0 2.79375 0.80625 3.61875 1.8 3.61875C2.79375 3.61875 3.6 2.79375 3.6 1.8C3.6 0.80625 2.79375 0 1.8 0V0Z" fill="white"/>
</svg>
