<?xml version="1.0" encoding="UTF-8" standalone="no"?>
<svg
   xmlns:dc="http://purl.org/dc/elements/1.1/"
   xmlns:cc="http://creativecommons.org/ns#"
   xmlns:rdf="http://www.w3.org/1999/02/22-rdf-syntax-ns#"
   xmlns:svg="http://www.w3.org/2000/svg"
   xmlns="http://www.w3.org/2000/svg"
   xmlns:sodipodi="http://sodipodi.sourceforge.net/DTD/sodipodi-0.dtd"
   xmlns:inkscape="http://www.inkscape.org/namespaces/inkscape"
   version="1.1"
   id="svg2"
   xml:space="preserve"
   width="1076.3066"
   height="283.85333"
   viewBox="0 0 1076.3066 283.85333"
   sodipodi:docname="logo prodezk.eps"><metadata
     id="metadata8"><rdf:RDF><cc:Work
         rdf:about=""><dc:format>image/svg+xml</dc:format><dc:type
           rdf:resource="http://purl.org/dc/dcmitype/StillImage" /></cc:Work></rdf:RDF></metadata><defs
     id="defs6" /><sodipodi:namedview
     pagecolor="#ffffff"
     bordercolor="#666666"
     borderopacity="1"
     objecttolerance="10"
     gridtolerance="10"
     guidetolerance="10"
     inkscape:pageopacity="0"
     inkscape:pageshadow="2"
     inkscape:window-width="640"
     inkscape:window-height="480"
     id="namedview4" /><g
     id="g10"
     inkscape:groupmode="layer"
     inkscape:label="ink_ext_XXXXXX"
     transform="matrix(1.3333333,0,0,-1.3333333,0,283.85333)"><g
       id="g12"
       transform="scale(0.1)"><path
         d="m 2741.15,1109.25 c 0,128 -94.4,225.61 -224,225.61 -128.01,0 -224.01,-97.61 -224.01,-225.61 0,-128 96,-225.609 224.01,-225.609 129.6,0 224,97.609 224,225.609 z m 214.41,0 c 0,-243.199 -169.6,-427.211 -396.81,-427.211 -108.8,0 -200.01,43.199 -265.61,116.801 V 397.23 h -208 v 1120.03 h 208 v -97.6 c 65.6,73.6 156.81,116.8 265.61,116.8 227.21,0 396.81,-184 396.81,-427.21"
         style="fill:#0e1b28;fill-opacity:1;fill-rule:nonzero;stroke:none"
         id="path14" /><path
         d="m 3555.55,1530.06 v -214.4 h -35.2 c -148.81,0 -235.21,-88.01 -235.21,-227.21 V 701.242 h -208 v 816.018 h 208 v -105.6 c 59.2,75.2 139.2,118.4 235.21,118.4 h 35.2"
         style="fill:#0e1b28;fill-opacity:1;fill-rule:nonzero;stroke:none"
         id="path16" /><path
         d="m 4238.75,1109.25 c 0,128 -94.4,225.61 -224,225.61 -128,0 -224.01,-97.61 -224.01,-225.61 0,-128 96.01,-225.609 224.01,-225.609 129.6,0 224,97.609 224,225.609 z m -662.41,0 c 0,243.21 188.8,427.21 438.41,427.21 249.6,0 438.41,-184 438.41,-427.21 0,-243.199 -188.81,-427.211 -438.41,-427.211 -249.61,0 -438.41,184.012 -438.41,427.211"
         style="fill:#0e1b28;fill-opacity:1;fill-rule:nonzero;stroke:none"
         id="path18" /><path
         d="m 5187.53,1109.25 c 0,128 -96,225.61 -225.61,225.61 -128,0 -224,-97.61 -224,-225.61 0,-128 96,-225.609 224,-225.609 129.61,0 225.61,97.609 225.61,225.609 z m 208,744.02 V 701.242 h -208 v 97.598 c -65.6,-72 -156.8,-116.801 -265.61,-116.801 -227.2,0 -398.41,184.012 -398.41,427.211 0,243.21 171.21,427.21 398.41,427.21 108.81,0 200.01,-44.8 265.61,-116.8 v 433.61 h 208"
         style="fill:#0e1b28;fill-opacity:1;fill-rule:nonzero;stroke:none"
         id="path20" /><path
         d="m 5736.32,1186.05 h 416 c -25.59,102.4 -107.19,168.01 -208,168.01 -102.41,0 -182.41,-67.2 -208,-168.01 z m 633.61,-152 h -632.01 c 28.8,-102.402 115.19,-167.999 233.6,-167.999 99.2,0 180.8,46.398 224.01,100.801 l 139.2,-121.602 c -84.8,-100.801 -216.01,-163.211 -369.61,-163.211 -259.2,0 -452.81,185.602 -452.81,430.411 0,241.61 187.2,424.01 433.61,424.01 244.8,0 428.81,-182.4 428.81,-428.81 0,-22.4 -1.6,-51.2 -4.8,-73.6"
         style="fill:#0e1b28;fill-opacity:1;fill-rule:nonzero;stroke:none"
         id="path22" /><path
         d="m 7123.54,902.852 v -201.61 h -673.61 v 151.996 l 371.21,462.422 h -364.81 v 201.6 h 656.01 v -152 l -371.2,-462.408 h 382.4"
         style="fill:#4ac3d1;fill-opacity:1;fill-rule:nonzero;stroke:none"
         id="path24" /><path
         d="m 7563.52,982.852 -72,-78.403 V 701.242 H 7283.51 V 1853.27 h 208.01 v -670.42 l 300.81,334.41 h 268.8 l -350.4,-377.61 361.6,-438.408 h -272 l -236.81,281.61"
         style="fill:#0e1b28;fill-opacity:1;fill-rule:nonzero;stroke:none"
         id="path26" /><path
         d="m 1415.94,1420.89 c 0,-391 -316.97,-707.968 -707.971,-707.968 v 0 H 663.84 V 1420.89 H 0 v 707.97 h 707.969 c 391.001,0 707.971,-316.97 707.971,-707.97 v 0"
         style="fill:#4ac3d1;fill-opacity:1;fill-rule:nonzero;stroke:none"
         id="path28" /><path
         d="M 663.84,712.922 V 335.34 C 663.84,150.141 513.699,0 328.496,0 H 0 v 712.922 h 663.84"
         style="fill:#0e1b28;fill-opacity:1;fill-rule:nonzero;stroke:none"
         id="path30" /></g></g></svg>
