<?xml version="1.0"?>
<svg xmlns="http://www.w3.org/2000/svg" xmlns:xlink="http://www.w3.org/1999/xlink" xmlns:svgjs="http://svgjs.com/svgjs" version="1.1" width="512" height="512" x="0" y="0" viewBox="0 0 64 64" style="enable-background:new 0 0 512 512" xml:space="preserve" class=""><g><path xmlns="http://www.w3.org/2000/svg" d="M60,55H59V28a1,1,0,0,0-1-1H52V8a1,1,0,0,0-1-1H45V4a1,1,0,0,0-1-1H20a1,1,0,0,0-1,1V7H13a1,1,0,0,0-1,1V27H6a1,1,0,0,0-1,1V55H4a1,1,0,0,0-1,1v4a1,1,0,0,0,1,1H60a1,1,0,0,0,1-1V56A1,1,0,0,0,60,55ZM57,29V55H52V29ZM21,5H43V7H21ZM14,9H50V55H48V46a1,1,0,0,0-1-1H35a1,1,0,0,0-1,1v9H30V46a1,1,0,0,0-1-1H17a1,1,0,0,0-1,1v9H14ZM40,55H36V47h4Zm2-8h4v8H42ZM22,55H18V47h4Zm2-8h4v8H24ZM7,29h5V55H7ZM59,59H5V57H59Z" fill="#ffffff" data-original="#000000"/><path xmlns="http://www.w3.org/2000/svg" d="M17,43H47a1,1,0,0,0,1-1V12a1,1,0,0,0-1-1H17a1,1,0,0,0-1,1V42A1,1,0,0,0,17,43Zm1-12h4v4H18Zm0-6h4v4H18Zm28,4H42V25h4Zm-6,0H36V25h4Zm-6,0H30V25h4Zm-6,0H24V25h4Zm-4,2h4v4H24Zm6,0h4v4H30Zm6,0h4v4H36Zm6,0h4v4H42Zm4-8H42V19h4Zm-6,0H36V19h4Zm-6,0H30V19h4Zm-6,0H24V19h4Zm-6,0H18V19h4ZM18,37h4v4H18Zm6,0h4v4H24Zm6,0h4v4H30Zm6,0h4v4H36Zm10,4H42V37h4Zm0-24H42V13h4Zm-6,0H36V13h4Zm-6,0H30V13h4Zm-6,0H24V13h4ZM18,13h4v4H18Z" fill="#ffffff" data-original="#000000"/></g></svg>
