<svg height="512pt" viewBox="0 -20 512.001 512" width="512pt" xmlns="http://www.w3.org/2000/svg"><path d="m39.890625 145.042969c-4.183594 0-7.574219 3.390625-7.574219 7.574219v156.90625c0 4.183593 3.390625 7.574218 7.574219 7.574218h432.21875c4.183594 0 7.574219-3.390625 7.574219-7.574218v-269.632813c0-4.183594-3.390625-7.574219-7.574219-7.574219h-432.21875c-4.183594 0-7.574219 3.390625-7.574219 7.574219v77.253906c0 4.183594 3.390625 7.574219 7.574219 7.574219s7.574219-3.390625 7.574219-7.574219v-69.679687h417.070312v254.484375h-417.070312v-149.332031c0-4.183594-3.394532-7.574219-7.574219-7.574219zm0 0"/><path d="m504.425781 53.945312c4.183594 0 7.574219-3.390624 7.574219-7.574218v-18.597656c0-15.316407-12.457031-27.773438-27.769531-27.773438h-456.460938c-15.3125 0-27.769531 12.457031-27.769531 27.773438v293.867187c0 15.316406 12.457031 27.773437 27.769531 27.773437h159.074219l-8.230469 66.648438h-13.5c-9.746093 0-17.671875 7.929688-17.671875 17.675781v20.195313c0 9.746094 7.925782 17.671875 17.671875 17.671875h181.773438c9.746093 0 17.675781-7.925781 17.675781-17.671875v-20.195313c0-9.746093-7.929688-17.675781-17.675781-17.675781h-13.5l-8.226563-66.648438h159.070313c15.3125 0 27.769531-12.460937 27.769531-27.773437v-239.777344c0-4.183593-3.390625-7.574219-7.574219-7.574219-4.183593 0-7.574219 3.390626-7.574219 7.574219v239.777344c0 6.960937-5.660156 12.625-12.621093 12.625h-456.460938c-6.960937 0-12.621093-5.664063-12.621093-12.625v-293.867187c0-6.964844 5.664062-12.625 12.621093-12.625h456.460938c6.960937 0 12.621093 5.664062 12.621093 12.625v18.597656c0 4.183594 3.390626 7.574218 7.574219 7.574218zm-186.300781 362.117188h-70.710938c-4.179687 0-7.570312 3.390625-7.570312 7.574219 0 4.183593 3.390625 7.574219 7.570312 7.574219h99.472657c1.390625 0 2.523437 1.132812 2.523437 2.527343v20.195313c0 1.390625-1.132812 2.523437-2.523437 2.523437h-181.773438c-1.394531 0-2.527343-1.128906-2.527343-2.523437v-20.195313c0-1.394531 1.132812-2.527343 2.527343-2.527343h46.957031c4.183594 0 7.574219-3.390626 7.574219-7.574219 0-4.183594-3.390625-7.574219-7.574219-7.574219h-18.195312l8.230469-66.648438h107.789062zm0 0"/><path d="m257.515625 174.203125c0-53.738281-43.714844-97.453125-97.453125-97.453125-53.734375 0-97.453125 43.714844-97.453125 97.453125 0 53.734375 43.71875 97.449219 97.453125 97.449219 53.738281 0 97.453125-43.714844 97.453125-97.449219zm-97.453125-82.304687c45.382812 0 82.304688 36.921874 82.304688 82.304687 0 15.066406-4.089844 29.191406-11.1875 41.351563-6.601563-16.226563-18.644532-29.859376-34.078126-38.386719 5.746094-7.800781 8.910157-17.28125 8.910157-27.203125 0-25.335938-20.613281-45.949219-45.949219-45.949219s-45.949219 20.613281-45.949219 45.949219c0 9.921875 3.164063 19.402344 8.910157 27.203125-15.429688 8.527343-27.476563 22.160156-34.078126 38.386719-7.097656-12.160157-11.1875-26.285157-11.1875-41.351563 0-45.382813 36.921876-82.304687 82.304688-82.304687zm-60 138.554687c4.613281-19.914063 19.023438-36.476563 38.324219-43.734375 2.53125-.953125 4.363281-3.183594 4.804687-5.851562.441406-2.667969-.574218-5.371094-2.664062-7.089844-7.160156-5.882813-11.265625-14.5625-11.265625-23.8125 0-16.984375 13.816406-30.800782 30.800781-30.800782s30.800781 13.816407 30.800781 30.800782c0 9.25-4.105469 17.929687-11.265625 23.8125-2.089844 1.71875-3.105468 4.421875-2.664062 7.089844.441406 2.667968 2.273437 4.898437 4.804687 5.851562 19.300781 7.257812 33.710938 23.820312 38.328125 43.734375-15.027344 16.015625-36.359375 26.050781-60.003906 26.050781s-44.976562-10.035156-60-26.050781zm0 0"/><path d="m280.238281 121.183594h151.476563c4.183594 0 7.574218-3.390625 7.574218-7.574219s-3.390624-7.574219-7.574218-7.574219h-151.476563c-4.183593 0-7.574219 3.390625-7.574219 7.574219s3.390626 7.574219 7.574219 7.574219zm0 0"/><path d="m280.238281 161.578125h70.6875c4.183594 0 7.574219-3.390625 7.574219-7.574219s-3.390625-7.574218-7.574219-7.574218h-70.6875c-4.183593 0-7.574219 3.390624-7.574219 7.574218s3.390626 7.574219 7.574219 7.574219zm0 0"/><path d="m280.238281 201.972656h151.476563c4.183594 0 7.574218-3.390625 7.574218-7.574218 0-4.183594-3.390624-7.574219-7.574218-7.574219h-151.476563c-4.183593 0-7.574219 3.390625-7.574219 7.574219 0 4.183593 3.390626 7.574218 7.574219 7.574218zm0 0"/><path d="m280.238281 242.367188h70.6875c4.183594 0 7.574219-3.390626 7.574219-7.574219 0-4.183594-3.390625-7.574219-7.574219-7.574219h-70.6875c-4.183593 0-7.574219 3.390625-7.574219 7.574219 0 4.183593 3.390626 7.574219 7.574219 7.574219zm0 0"/></svg>