<?xml version="1.0"?>
<svg xmlns="http://www.w3.org/2000/svg" xmlns:xlink="http://www.w3.org/1999/xlink" xmlns:svgjs="http://svgjs.com/svgjs" version="1.1" width="512" height="512" x="0" y="0" viewBox="0 0 512 512" style="enable-background:new 0 0 512 512" xml:space="preserve"><g><path xmlns="http://www.w3.org/2000/svg" d="M468,253H313a6,6,0,0,0-6,6v35a6,6,0,0,0,6,6H468a6,6,0,0,0,6-6V259A6,6,0,0,0,468,253Zm-7,35H319V265H461Z" fill="#ffffff" data-original="#000000"/><path xmlns="http://www.w3.org/2000/svg" d="M333.563,482.4a24.006,24.006,0,1,0-24.006-24.005A24.033,24.033,0,0,0,333.563,482.4Zm0-36.011a12.006,12.006,0,1,1-12.006,12.006A12.019,12.019,0,0,1,333.563,446.387Z" fill="#ffffff" data-original="#000000"/><path xmlns="http://www.w3.org/2000/svg" d="M390.513,482.4a24.006,24.006,0,1,0-24.006-24.005A24.033,24.033,0,0,0,390.513,482.4Zm0-36.011a12.006,12.006,0,1,1-12.006,12.006A12.019,12.019,0,0,1,390.513,446.387Z" fill="#ffffff" data-original="#000000"/><path xmlns="http://www.w3.org/2000/svg" d="M447.464,482.4a24.006,24.006,0,1,0-24.006-24.005A24.033,24.033,0,0,0,447.464,482.4Zm0-36.011a12.006,12.006,0,1,1-12.006,12.006A12.018,12.018,0,0,1,447.464,446.387Z" fill="#ffffff" data-original="#000000"/><path xmlns="http://www.w3.org/2000/svg" d="M333.563,429.425a24.006,24.006,0,1,0-24.006-24.006A24.033,24.033,0,0,0,333.563,429.425Zm0-36.011a12.006,12.006,0,1,1-12.006,12A12.019,12.019,0,0,1,333.563,393.414Z" fill="#ffffff" data-original="#000000"/><path xmlns="http://www.w3.org/2000/svg" d="M390.513,429.425a24.006,24.006,0,1,0-24.006-24.006A24.033,24.033,0,0,0,390.513,429.425Zm0-36.011a12.006,12.006,0,1,1-12.006,12A12.019,12.019,0,0,1,390.513,393.414Z" fill="#ffffff" data-original="#000000"/><path xmlns="http://www.w3.org/2000/svg" d="M447.464,429.425a24.006,24.006,0,1,0-24.006-24.006A24.033,24.033,0,0,0,447.464,429.425Zm0-36.011a12.006,12.006,0,1,1-12.006,12A12.018,12.018,0,0,1,447.464,393.414Z" fill="#ffffff" data-original="#000000"/><path xmlns="http://www.w3.org/2000/svg" d="M333.563,376.453a24.006,24.006,0,1,0-24.006-24.006A24.033,24.033,0,0,0,333.563,376.453Zm0-36.012a12.006,12.006,0,1,1-12.006,12.006A12.02,12.02,0,0,1,333.563,340.441Z" fill="#ffffff" data-original="#000000"/><path xmlns="http://www.w3.org/2000/svg" d="M390.513,376.453a24.006,24.006,0,1,0-24.006-24.006A24.033,24.033,0,0,0,390.513,376.453Zm0-36.012a12.006,12.006,0,1,1-12.006,12.006A12.02,12.02,0,0,1,390.513,340.441Z" fill="#ffffff" data-original="#000000"/><path xmlns="http://www.w3.org/2000/svg" d="M447.464,376.453a24.006,24.006,0,1,0-24.006-24.006A24.033,24.033,0,0,0,447.464,376.453Zm0-36.012a12.006,12.006,0,1,1-12.006,12.006A12.019,12.019,0,0,1,447.464,340.441Z" fill="#ffffff" data-original="#000000"/><path xmlns="http://www.w3.org/2000/svg" d="M222.051,309h-62.5a6,6,0,0,0,0,12h62.5a6,6,0,0,0,0-12Z" fill="#ffffff" data-original="#000000"/><path xmlns="http://www.w3.org/2000/svg" d="M130.985,321h6.1a6,6,0,0,0,0-12h-6.1a6,6,0,0,0,0,12Z" fill="#ffffff" data-original="#000000"/><path xmlns="http://www.w3.org/2000/svg" d="M213.146,360H180.508a6,6,0,0,0,0,12h32.638a6,6,0,0,0,0-12Z" fill="#ffffff" data-original="#000000"/><path xmlns="http://www.w3.org/2000/svg" d="M157.066,360H130.985a6,6,0,0,0,0,12h26.081a6,6,0,1,0,0-12Z" fill="#ffffff" data-original="#000000"/><path xmlns="http://www.w3.org/2000/svg" d="M107,46.806a6,6,0,0,0-6,6v2.413a6,6,0,0,0,12,0V52.806A6,6,0,0,0,107,46.806Z" fill="#ffffff" data-original="#000000"/><path xmlns="http://www.w3.org/2000/svg" d="M107,72.649a6,6,0,0,0-6,6v79.478a6,6,0,0,0,12,0V78.649A6,6,0,0,0,107,72.649Z" fill="#ffffff" data-original="#000000"/><path xmlns="http://www.w3.org/2000/svg" d="M230.6,64.854a88.536,88.536,0,1,0,88.536,88.536A88.636,88.636,0,0,0,230.6,64.854ZM307,149H243.475l45.282-45.282A76.176,76.176,0,0,1,307,149ZM230.6,76.854a76.185,76.185,0,0,1,49.672,18.379l-49.643,49.643L191.561,87.6A76.056,76.056,0,0,1,230.6,76.854Zm0,153.071A76.5,76.5,0,0,1,181.757,94.516l43.557,63.865A6,6,0,0,0,230.271,161h76.485A76.641,76.641,0,0,1,230.6,229.925Z" fill="#ffffff" data-original="#000000"/><path xmlns="http://www.w3.org/2000/svg" d="M470.609,228H390V98.739a16.68,16.68,0,0,0-4.724-11.746L310.255,10.074A16.817,16.817,0,0,0,298.267,5H88.412A16.513,16.513,0,0,0,72,21.811V38H56.038a16.761,16.761,0,0,0-12,4.711A16.324,16.324,0,0,0,39,54.366V64H26.9a16.618,16.618,0,0,0-11.933,4.733A16.3,16.3,0,0,0,10,80.409V478.986A17.076,17.076,0,0,0,26.912,496H284.991a30.33,30.33,0,0,0,23.4,11H470.609A30.392,30.392,0,0,0,501,476.609V258.391A30.392,30.392,0,0,0,470.609,228ZM307,23.909,370.093,89H337.375a30.39,30.39,0,0,1-21.486-9.14A30.739,30.739,0,0,1,307,58.139ZM51,54.359a4.407,4.407,0,0,1,1.531-3.172A4.875,4.875,0,0,1,56.049,50H72V421.472A16.25,16.25,0,0,0,88.424,438H278v19H56.053A5.328,5.328,0,0,1,51,451.854ZM26.915,484a5.009,5.009,0,0,1-3.452-1.51A5.074,5.074,0,0,1,22,478.983V80.4a4.385,4.385,0,0,1,1.461-3.194A4.731,4.731,0,0,1,26.912,76H39V451.856A17.329,17.329,0,0,0,56.049,469H278v7.609a30.412,30.412,0,0,0,.91,7.391ZM278,258.391v53.363A5.992,5.992,0,0,0,272.959,309H250.507a6,6,0,0,0,0,12h22.452A5.992,5.992,0,0,0,278,318.246V360H236.216a6,6,0,0,0,0,12H278v54H88.427a4.225,4.225,0,0,1-3.208-1.267A4.3,4.3,0,0,1,84,421.47V21.8A4.506,4.506,0,0,1,88.424,17H295V58.136A42.779,42.779,0,0,0,337.369,101H378V228H308.391A30.392,30.392,0,0,0,278,258.391ZM490,476.609A18.515,18.515,0,0,1,471.489,495H308.874C298.733,495,290,486.75,290,476.609V321H490ZM490,309H290V258.412C290,248.271,298.733,240,308.874,240H471.489A18.533,18.533,0,0,1,490,258.412Z" fill="#ffffff" data-original="#000000"/></g></svg>
