<svg width="1077" height="284" viewBox="0 0 1077 284" fill="none" xmlns="http://www.w3.org/2000/svg">
<g clip-path="url(#clip0_1452_8106)">
<path d="M365.488 135.954C365.488 118.887 352.901 105.872 335.621 105.872C318.553 105.872 305.753 118.887 305.753 135.954C305.753 153.02 318.553 166.035 335.621 166.035C352.901 166.035 365.488 153.02 365.488 135.954V135.954ZM394.076 135.954C394.076 168.38 371.462 192.915 341.168 192.915C326.661 192.915 314.5 187.155 305.753 177.342V230.89H278.02V81.5523H305.753V94.5656C314.5 84.7523 326.661 78.9923 341.168 78.9923C371.462 78.9923 394.076 103.526 394.076 135.954Z" fill="white"/>
<path d="M474.073 79.8454V108.432H469.38C449.539 108.432 438.018 120.167 438.018 138.727V190.354H410.285V81.5521H438.018V95.6321C445.912 85.6054 456.579 79.8454 469.38 79.8454H474.073" fill="white"/>
<path d="M565.167 135.954C565.167 118.887 552.58 105.872 535.3 105.872C518.234 105.872 505.432 118.887 505.432 135.954C505.432 153.02 518.234 166.035 535.3 166.035C552.58 166.035 565.167 153.02 565.167 135.954ZM476.846 135.954C476.846 103.526 502.019 78.9923 535.3 78.9923C568.58 78.9923 593.755 103.526 593.755 135.954C593.755 168.38 568.58 192.915 535.3 192.915C502.019 192.915 476.846 168.38 476.846 135.954Z" fill="white"/>
<path d="M691.671 135.954C691.671 118.887 678.871 105.872 661.589 105.872C644.523 105.872 631.723 118.887 631.723 135.954C631.723 153.02 644.523 166.035 661.589 166.035C678.871 166.035 691.671 153.02 691.671 135.954ZM719.404 36.7509V190.355H691.671V177.342C682.924 186.942 670.764 192.915 656.256 192.915C625.963 192.915 603.135 168.38 603.135 135.954C603.135 103.526 625.963 78.9923 656.256 78.9923C670.764 78.9923 682.924 84.9656 691.671 94.5656V36.7509H719.404Z" fill="white"/>
<path d="M764.843 125.714H820.309C816.897 112.06 806.017 103.312 792.576 103.312C778.921 103.312 768.255 112.272 764.843 125.714ZM849.324 145.98H765.056C768.896 159.634 780.415 168.38 796.203 168.38C809.429 168.38 820.309 162.194 826.071 154.94L844.631 171.154C833.324 184.594 815.829 192.915 795.349 192.915C760.789 192.915 734.975 168.168 734.975 135.527C734.975 103.312 759.935 78.9923 792.789 78.9923C825.429 78.9923 849.964 103.312 849.964 136.167C849.964 139.154 849.751 142.994 849.324 145.98" fill="white"/>
<path d="M949.805 163.473V190.354H859.99V170.088L909.485 108.432H860.844V81.5521H948.312V101.819L898.818 163.473H949.805" fill="white"/>
<path d="M1008.47 152.806L998.869 163.26V190.354H971.135V36.7508H998.869V126.14L1038.98 81.5521H1074.82L1028.1 131.9L1076.31 190.354H1040.04L1008.47 152.806" fill="white"/>
<path d="M188.792 94.4016C188.792 146.535 146.529 188.797 94.3959 188.797H88.512V94.4016H0V0.00560539H94.3959C146.529 0.00560539 188.792 42.2683 188.792 94.4016Z" fill="white"/>
<path d="M88.512 188.797V239.142C88.512 263.835 68.4932 283.854 43.7995 283.854H0V188.797H88.512Z" fill="white"/>
</g>
<defs>
<clipPath id="clip0_1452_8106">
<rect width="1076.31" height="283.853" fill="white"/>
</clipPath>
</defs>
</svg>
